<svg xmlns="http://www.w3.org/2000/svg" id="Livello_2" data-name="Livello 2" viewBox="0 0 235.7 59.37"><defs><style>      .cls-1 {        fill: #172424;      }      .cls-1, .cls-2 {        stroke-width: 0px;      }      .cls-2 {        fill: #dd2d32;      }    </style></defs><g id="Livello_1-2" data-name="Livello 1"><g><g><rect class="cls-2" width="26.47" height="27.66"></rect><path class="cls-2" d="m0,31.71h26.47v27.65h-6.98C8.72,59.37,0,50.61,0,39.8v-8.09Z"></path><rect class="cls-2" x="32.9" y="25.53" width="26.46" height="2.13"></rect><rect class="cls-2" x="32.9" y="21.27" width="26.46" height="2.13"></rect><path class="cls-2" d="m59.36,19.15h-26.46v-2.13h26.3c.09.7.15,1.41.16,2.13Z"></path><path class="cls-2" d="m58.8,14.89h-25.9v-2.13h25.25c.26.69.47,1.4.65,2.13Z"></path><path class="cls-2" d="m57.22,10.64h-24.32v-2.13h23.05c.46.68.89,1.39,1.26,2.13Z"></path><path class="cls-2" d="m54.28,6.38h-21.37v-2.13h19.11c.81.65,1.57,1.36,2.27,2.13Z"></path><path class="cls-2" d="m48.73,2.13h-15.83V0h6.98c3.18,0,6.19.77,8.85,2.13Z"></path><rect class="cls-2" x="32.9" y="57.24" width="26.46" height="2.13"></rect><rect class="cls-2" x="32.9" y="52.99" width="26.46" height="2.13"></rect><rect class="cls-2" x="32.9" y="48.73" width="26.46" height="2.13"></rect><rect class="cls-2" x="32.9" y="44.48" width="26.46" height="2.13"></rect><rect class="cls-2" x="32.9" y="40.22" width="26.46" height="2.13"></rect><rect class="cls-2" x="32.9" y="35.97" width="26.46" height="2.13"></rect><rect class="cls-2" x="32.9" y="31.71" width="26.46" height="2.13"></rect></g><g><g><path class="cls-1" d="m73.7,33.78v8.26h-5v-24.63h9.56c5.8,0,8.69,2.71,8.69,8.11,0,3.21-1.21,5.58-3.62,7.1l3.51,9.42h-5.47l-2.86-8.26h-4.82Zm7.28-5.36c.58-.72.87-1.68.87-2.86s-.31-2.12-.92-2.83c-.62-.7-1.5-1.05-2.66-1.05h-4.56v7.82h4.64c1.18,0,2.07-.36,2.65-1.09Z"></path><path class="cls-1" d="m90.69,42.04v-24.63h5v24.63h-5Z"></path><path class="cls-1" d="m100.42,42.04v-24.63h8.44l5.94,20.29h.36v-20.29h5v24.63h-8.22l-6.16-20.29h-.36v20.29h-5Z"></path><path class="cls-1" d="m123.07,42.04l5.54-24.63h9.49l5.54,24.63h-5l-.98-4.46h-8.62l-.98,4.46h-5Zm9.42-20.5l-2.5,11.7h6.74l-2.5-11.7h-1.74Z"></path><path class="cls-1" d="m154.69,21.32c-2.63,0-3.95.87-3.95,2.61,0,.77.33,1.36.98,1.78s2.18,1,4.58,1.78c2.4.77,4.09,1.65,5.05,2.63s1.45,2.48,1.45,4.51c0,2.58-.79,4.54-2.35,5.87-1.57,1.33-3.62,1.99-6.16,1.99-1.88,0-4.19-.29-6.92-.87l-1.3-.25.51-3.88c3.24.43,5.71.65,7.43.65,2.56,0,3.84-1.06,3.84-3.19,0-.77-.3-1.38-.89-1.81-.59-.43-1.77-.91-3.53-1.41-2.8-.8-4.78-1.74-5.92-2.84-1.15-1.1-1.72-2.63-1.72-4.58,0-2.46.75-4.3,2.25-5.51,1.5-1.21,3.55-1.81,6.16-1.81,1.79,0,4.06.24,6.81.72l1.3.25-.4,3.95c-3.41-.39-5.81-.58-7.21-.58Z"></path><path class="cls-1" d="m182.13,41.64c-2.56.56-4.87.83-6.92.83s-3.7-.25-4.93-.76c-1.23-.51-2.2-1.32-2.9-2.43-.7-1.11-1.18-2.41-1.45-3.91s-.4-3.38-.4-5.65c0-4.76.67-8.07,2.01-9.94,1.34-1.87,3.81-2.81,7.41-2.81,2.08,0,4.48.33,7.21.98l-.15,3.98c-2.39-.36-4.38-.54-5.96-.54s-2.71.21-3.39.63c-.68.42-1.18,1.23-1.5,2.41-.33,1.18-.49,3.2-.49,6.05s.33,4.82,1,5.92c.66,1.1,1.99,1.65,3.98,1.65s4.11-.17,6.36-.51l.11,4.09Z"></path><path class="cls-1" d="m185.49,42.04v-24.63h5v24.63h-5Z"></path><path class="cls-1" d="m193.35,21.82v-4.42h18.11v4.42h-6.52v20.21h-5v-20.21h-6.59Z"></path><path class="cls-1" d="m211.02,42.04l5.54-24.63h9.49l5.54,24.63h-5l-.98-4.46h-8.62l-.98,4.46h-5Zm9.42-20.5l-2.5,11.7h6.74l-2.5-11.7h-1.74Z"></path></g><path class="cls-1" d="m233.18,19.74c.18,0,.32-.04.43-.11.11-.07.16-.2.16-.39,0-.2-.07-.34-.22-.42-.08-.04-.18-.06-.32-.06h-.95v.98h.89Zm-1.28-1.31h1.32c.22,0,.4.03.54.1.27.12.4.35.4.67,0,.17-.04.31-.11.42-.07.11-.17.2-.3.26.11.05.19.1.25.18.06.07.09.19.1.36v.38c.02.11.03.19.04.24.02.09.06.15.12.17v.06h-.47s-.02-.06-.03-.1c0-.04-.01-.11-.02-.23l-.02-.48c0-.19-.08-.31-.21-.38-.07-.04-.19-.05-.35-.05h-.88v1.23h-.39v-2.86Zm-1.77,1.49c0-1.54,1.25-2.79,2.79-2.79s2.79,1.25,2.79,2.79-1.25,2.79-2.79,2.79-2.79-1.25-2.79-2.79Zm.43,0c0,1.3,1.06,2.36,2.36,2.36s2.36-1.06,2.36-2.36-1.06-2.36-2.36-2.36-2.36,1.06-2.36,2.36Z"></path></g></g></g></svg>